<?xml version="1.0" encoding="utf-8"?>
<!-- Generator: Adobe Illustrator 28.0.0, SVG Export Plug-In . SVG Version: 6.00 Build 0)  -->
<svg version="1.1" id="Слой_1" xmlns="http://www.w3.org/2000/svg" xmlns:xlink="http://www.w3.org/1999/xlink" x="0px" y="0px"
	 viewBox="0 0 288 288" style="enable-background:new 0 0 288 288;" xml:space="preserve">
<style type="text/css">
	.st0{fill:#2A3558;}
	.st1{fill:url(#SVGID_1_);}
	.st2{fill:url(#SVGID_00000111871516483329359500000008396648467555773356_);}
	.st3{fill:url(#SVGID_00000085228900041036524900000009053182540590877574_);}
</style>
<g>
	<path class="st0" d="M283.4,178.9c-1-1.3-6.2,2.1-14,4c-9.8,2.5-18.1,1.3-22.3,0.6c-7.5-1.2-12.7-3.5-22.3-7.8
		c-6.2-2.8-10.7-5.3-12.3-6.2c-4.3-2.5-6.9-4.3-13.3-8.8c-18.3-12.9-20-14-22.9-15.4c-6.6-3.3-12.1-4.8-16-5.9
		c-10.3-2.8-18.3-3.3-27.5-3.7c-5.3-0.3-12.6-0.1-27.2,0.3c-19.5,0.5-12.5,1-18,1c-2,0-4.4,0.4-9.1,1c-0.8,0.1-2.3,0.3-2.3,0.6
		c0,0.3,1.5,0.4,2.6,0.6c2.7,0.4,5.3,1.1,7.9,1.6c5.3,1,12.9,3.8,15.3,4.7c23.3,8.5,22.1,7.3,30,10.9c7.1,3.2,12,6,20.2,10.8
		c12.2,7,20.9,13.1,22.9,14.5c10.7,7.4,9.5,7.6,16,11.7c7.2,4.5,15.3,9.4,27,11.7c2.6,0.5,11.2,2,22.2,0.4
		c3.4-0.5,10.2-1.7,18.3-5.2c9.9-4.3,16.3-9.8,20.3-14.2C280.4,184.5,284.3,180.2,283.4,178.9z"/>
	<linearGradient id="SVGID_1_" gradientUnits="userSpaceOnUse" x1="144.6159" y1="131.5871" x2="271.7454" y2="131.5871">
		<stop  offset="1.385225e-07" style="stop-color:#1178B9"/>
		<stop  offset="0.2791" style="stop-color:#176096"/>
		<stop  offset="0.571" style="stop-color:#1C4B78"/>
		<stop  offset="0.8216" style="stop-color:#1F3F66"/>
		<stop  offset="1" style="stop-color:#203A5F"/>
	</linearGradient>
	<path class="st1" d="M271.7,153.3c0.2-1.6-7-3.4-16.8-6.9c-10.6-3.8-9.3-4.4-19.5-8.1c-6.5-2.4-12.1-4-20.4-6.3
		c-8.7-2.5-10.6-2.8-15.5-4.7c-6.2-2.5-12-5.5-12.9-5.9c-4.5-2.4-6-3.5-10.6-5.6c-1.7-0.8-3.9-1.7-8.3-3.5
		c-2.2-0.9-7.1-2.8-12.9-4.8c0,0-1.9-0.6-8.5-1.5c-0.7-0.1-1.8-0.2-1.9,0.1c-0.2,0.5,2.1,1.7,2.8,2.1c1.1,0.6,4.1,3.1,10.3,8.1
		c6.5,5.3,7.7,6.5,11,9.2c8.9,7.2,16.8,11.8,21.5,14.6c4.8,2.8,9.8,5.7,17.1,8.7c10.7,4.4,19.2,6.2,21,6.6
		c8.6,1.7,14.6,1.8,23.6,1.9c0,0,4.8,0.1,17.2-2.7C270.3,154.3,271.7,154,271.7,153.3z"/>
	
		<linearGradient id="SVGID_00000173156271897107582970000014477087478760598663_" gradientUnits="userSpaceOnUse" x1="48.889" y1="126.755" x2="182.9494" y2="126.755">
		<stop  offset="1.491781e-07" style="stop-color:#EC3422"/>
		<stop  offset="0.6821" style="stop-color:#F4680C"/>
		<stop  offset="1" style="stop-color:#F88201"/>
	</linearGradient>
	<path style="fill:url(#SVGID_00000173156271897107582970000014477087478760598663_);" d="M182.9,142.2c-1.1-0.3-2.8-0.8-4.8-1.4
		c-3-0.9-4.4-1.4-6.6-2.2c-1.7-0.6-6-2-11.1-3.2c-2.1-0.5-4.8-1.2-8.2-1.8c-3.4-0.6-6.4-1-12.3-1.4c-10-0.7-9.9-0.8-13.6-0.9
		c-1.4,0-4,0-9,0.1c-6.7,0.1-10.1,0.2-11.5,0.3c-6.1,0.4-10.6,0.9-10.6,0.9c-2.6,0.3-5.4,0.7-8.5-0.2c-0.7-0.2-2.7-0.8-2.9-0.9
		c-1.8-0.6-2.5-0.8-4.5-1.5c-3.9-1.3-4.3-1.4-6.1-2.1c-0.5-0.2-1.5-0.7-3.6-1.7c-2.4-1.1-3.6-1.7-4.1-1.9c-1.7-0.9-1.6-1-5.6-3.6
		c-2.5-1.6-2.8-1.7-3.7-2.4c-0.9-0.7-1.7-1.4-3.3-2.9c0,0-1-0.9-2.7-2.7c-1-1-1.2-1.2-1.2-1.3c0.2-0.2,1.9,0.9,4.3,1.7
		c1.7,0.6,3,0.8,5.3,1c6.3,0.7,9.5,1,12.6,0.9c3.1-0.1,2.7-0.4,10.3-1.5c1.9-0.3,7-1,12.8-1.5c7.2-0.7,12.8-0.8,13.8-0.8
		c8-0.1,15.3-0.3,24.5,1.5c4.4,0.8,11.3,2.2,18.4,6.1c3.5,1.9,6,3.2,8.7,5.8c1.1,1.1,2.4,2.4,4.8,4.3c1.2,0.9,1.7,1.2,3.9,2.7
		c2.2,1.5,3.3,2.4,5.1,3.7C175.4,136.9,178.6,139.1,182.9,142.2z"/>
	
		<linearGradient id="SVGID_00000090980499081069337790000012766678083023960458_" gradientUnits="userSpaceOnUse" x1="11.9524" y1="68.1863" x2="148.7353" y2="68.1863">
		<stop  offset="1.438503e-07" style="stop-color:#F85517"/>
		<stop  offset="1" style="stop-color:#FC8600"/>
	</linearGradient>
	<path style="fill:url(#SVGID_00000090980499081069337790000012766678083023960458_);" d="M148.7,113.9c-0.2,0.6-2.4,0.1-9.4-1.5
		c-8.7-2.1-10.2-2.6-12.9-3.1c-5.9-1.3-10.2-1.2-17.6-1.2c-7.1,0-12.5,0.6-18.7,1.3c-5.7,0.6-11.5,1.1-17.2,1.8
		c-4.9,0.6-7.1,1-10.4,0.2c-2.4-0.6-4.8-2-9.6-4.9c-4.5-2.6-6.7-4-9.4-6.1c-4.3-3.3-7.2-6.4-9.3-8.6c-2.3-2.5-5-5.3-7.7-9.6
		c-1.1-1.7-2.3-4.2-4.8-9.1c-4.4-8.8-4.6-10.1-4.3-10.3c0.3-0.2,0.9,0.7,3,2.3c1.3,1,1.8,1.1,3.4,2.2c3.1,2,2.9,2.4,5.3,3.8
		c1,0.6,2.4,1.3,5.2,2.6c1.5,0.7,3.1,1.4,5.1,2.1c1.3,0.5,3.3,1.1,3.4,0.9c0.2-0.3-2.4-1.9-3.1-2.4c-5-3.2-8.7-8.7-12.3-13.9
		c-2.9-4.4-6.3-12.6-13.1-29.2c-1.1-2.8-3.2-8-1.9-8.9c0.5-0.4,1.4,0.2,2.8,0.9c3.7,1.8,5.5,1.7,8.5,2.7
		c16.2,5.4,34.2,16.4,34.2,16.4c15.5,9.5,26.4,19.1,31.9,24.1c6.9,6.2,15.3,13.8,15.3,13.8c8.6,7.9,9.8,9.1,13.4,11.9
		c5.8,4.5,13,9.3,14.7,10.5c2.8,1.9,5.6,3.9,8.4,5.8C147.2,112.2,148.9,113.4,148.7,113.9z"/>
</g>
</svg>
